<?xml version="1.0" encoding="UTF-8"?>
<svg xmlns="http://www.w3.org/2000/svg" viewBox="0 0 588.71 715.75">
  <defs>
    <style>
      .cls-1 {
        fill: #6e5f4b;
      }

      .cls-2 {
        fill: #538a55;
      }

      .cls-3, .cls-4, .cls-5 {
        fill: #c9bdaf;
      }

      .cls-6 {
        fill: #fff;
      }

      .cls-7 {
        fill: none;
        stroke: #302a21;
      }

      .cls-7, .cls-4, .cls-5 {
        stroke-miterlimit: 10;
      }

      .cls-4 {
        stroke-width: 10px;
      }

      .cls-4, .cls-5 {
        stroke: #c9bdaf;
      }

      .cls-5 {
        stroke-width: 14px;
      }

      .cls-8 {
        fill: #302a21;
      }
    </style>
  </defs>
  <g id="Layer_2" data-name="Layer 2">
    <g>
      <path class="cls-3" d="M271.76,494.7c-10.12-.49-37.07-5.45-46.24-15.2-1.97-2.09-2.88-4.17-2.79-6.36l.02-.53-23.01-133.24-.1-.32c-6.75-21.6-1.33-46.64,14.89-68.7,20.51-27.9,53.37-45.23,85.76-45.23h123.56c40.05,0,78.67,17.6,100.8,45.92,11.98,15.34,24.51,40.64,16.17,74.06l-.07.28-16.12,124.02c-12.83,23.79-41.74,24.51-45.02,24.51h-2.46c.89-1.3,1.41-2.08,1.46-2.15l5.09-7.75h-218.95l5.04,7.73c.06.09.77,1.17,1.98,2.94Z"/>
      <path class="cls-3" d="M423.85,230.13c38.54,0,75.66,16.86,96.86,44,11.3,14.46,23.12,38.31,15.26,69.77l-.14.56-.07.57-15.96,122.79c-8.32,14.59-23.7,19.1-32.93,20.49l6.1-9.29h-237.45l6.13,9.41c-11.55-2.02-26.79-6.31-32.49-12.36-1.48-1.57-1.45-2.41-1.43-2.73l.04-1.06-.18-1.05-22.86-132.39-.11-.65-.2-.63c-6.27-20.07-1.12-43.49,14.14-64.25,19.58-26.64,50.9-43.19,81.73-43.19h123.56M423.85,220.13h-123.56c-64.9,0-122.69,65.16-105.42,120.42l22.86,132.39c-.79,19.4,44.01,26.57,54.9,26.79l8.81-.03c-4.49-6.1-7.48-10.67-7.48-10.67h200.46s-2.78,4.24-6.99,9.95l12.18-.05c12.34-.01,38.01-4.95,49.86-27.98l16.2-124.63c17.28-69.28-47.86-126.19-121.83-126.19h0Z"/>
    </g>
    <g>
      <path class="cls-3" d="M368.23,509.97c-21.08,0-40.65-1.26-53.69-3.46-3.77-.64-11.6-6.51-22.99-20.68l165.69-.64c-10.79,13.38-18.2,19.01-21.78,19.69-16.94,3.24-41.45,5.09-67.24,5.09Z"/>
      <path class="cls-3" d="M446.33,490.23c-6.3,6.78-10.25,9.38-11.79,9.73-16.64,3.18-40.81,5-66.3,5-20.81,0-40.08-1.23-52.85-3.39-.05-.01-3.96-.91-13.04-10.79l143.98-.56M467.44,480.15l-185.99.72c8.6,11.68,22.78,28.97,32.27,30.57,13.63,2.3,33.59,3.53,54.52,3.53,24.18,0,49.65-1.64,68.17-5.18,9.12-1.74,22.81-18.5,31.03-29.64h0Z"/>
    </g>
    <g>
      <path class="cls-3" d="M283.51,494.03h170.85l-170.37.66c-.16-.22-.32-.44-.48-.66Z"/>
      <path class="cls-3" d="M474.43,489.03h-200.46s2.98,4.57,7.48,10.67l185.99-.72c4.21-5.71,6.99-9.95,6.99-9.95h0Z"/>
    </g>
    <g>
      <path class="cls-4" d="M532.83,382.29l-314.75-11.48-26.24-53.4c-29.74-60.53,17.5-130.48,84.76-125.49l162.43,12.05c75.88,5.63,126.19,81.17,102.12,153.36l-8.32,24.95Z"/>
      <polygon class="cls-4" points="221.1 161.9 290 218.09 300.89 201.13 221.1 161.9"/>
      <polygon class="cls-4" points="229.36 178.55 286.18 226.99 297.07 210.03 229.36 178.55"/>
      <polygon class="cls-4" points="158.46 184.27 240.92 243.27 258.87 198.37 158.46 184.27"/>
      <polygon class="cls-4" points="157.03 195.37 226.52 250.83 237.23 233.75 157.03 195.37"/>
      <polygon class="cls-4" points="154.25 244.86 193.11 320.38 209.81 309.1 154.25 244.86"/>
      <polygon class="cls-4" points="154.21 244.51 203.98 288.43 214.87 271.46 154.21 244.51"/>
      <polygon class="cls-4" points="176.09 221.58 209.1 268.19 232.22 232.17 176.09 221.58"/>
      <polygon class="cls-4" points="175.5 246.14 208.51 292.76 231.63 256.73 175.5 246.14"/>
      <polygon class="cls-4" points="289.8 178.29 340.29 222.67 351.18 205.7 289.8 178.29"/>
      <polygon class="cls-4" points="551.69 238.45 534.66 303.35 545.27 305.24 551.69 238.45"/>
      <polygon class="cls-4" points="540.71 252.8 529.93 284.43 539.9 286.21 540.71 252.8"/>
      <polygon class="cls-4" points="524.79 199.08 503.26 251.86 526.77 256.05 524.79 199.08"/>
      <polygon class="cls-4" points="403.77 153.43 428.86 220.78 449.55 208.84 403.77 153.43"/>
      <polygon class="cls-4" points="436.09 179.02 448.09 223.68 468.77 211.74 436.09 179.02"/>
    </g>
    <path class="cls-5" d="M525.33,374.85l-314.75-11.48-26.24-53.4c-29.74-60.53,17.5-130.48,84.76-125.49l162.43,12.05c75.88,5.63,126.19,81.17,102.12,153.36l-8.32,24.95Z"/>
  </g>
  <g id="Layer_1" data-name="Layer 1">
    <path class="cls-8" d="M532.6,378.82l-314.75-11.48-26.24-53.4c-29.74-60.53,17.5-130.48,84.76-125.49l162.43,12.05c75.88,5.63,126.19,81.17,102.12,153.36l-8.32,24.95Z"/>
    <path class="cls-2" d="M531.64,341.64l-14.78,119.12c-10.81,22.01-34.23,26.73-45.49,26.74l-11.11.05c3.84-5.46,6.38-9.51,6.38-9.51h-182.89s2.72,4.37,6.82,10.2l-8.04.03c-9.94-.21-50.81-7.07-50.09-25.61l-20.86-126.54c-15.76-52.82,36.97-115.1,96.18-115.1h112.73c67.48,0,126.92,54.4,111.15,120.62Z"/>
    <path class="cls-2" d="M460.26,469.55c-7.5,10.65-19.99,26.67-28.31,28.33-31.53,6.31-85.14,6.31-111.94,1.58-8.66-1.53-21.59-18.06-29.44-29.22l169.69-.69Z"/>
    <g>
      <path class="cls-2" d="M290.83,487.74c-2.98-4.25-5.23-7.72-6.17-9.2h181.07c-.9,1.4-2.98,4.59-5.73,8.51l-169.17.69Z"/>
      <path class="cls-2" d="M464.81,479.04c-1.03,1.59-2.82,4.29-5.07,7.51l-168.65.69c-2.47-3.53-4.42-6.5-5.52-8.2h179.24M466.64,478.04h-182.89s2.72,4.37,6.82,10.2l169.69-.69c3.84-5.46,6.38-9.51,6.38-9.51h0Z"/>
    </g>
    <ellipse class="cls-7" cx="297.93" cy="354.27" rx="40.99" ry="46.51"/>
    <ellipse class="cls-7" cx="298.46" cy="362.58" rx="40.99" ry="46.51"/>
    <g>
      <path class="cls-1" d="M321.6,221.61l115.2-.78c29.73,0,57.73,14.58,76.84,39.99,21.67,28.82,28.81,66.09,19.09,99.69l-10.44,53.47-200.69-192.37Z"/>
      <path class="cls-8" d="M436.8,221.33c15.31,0,29.92,3.7,43.42,11,12.54,6.78,23.96,16.73,33.03,28.8,10.28,13.68,17.53,29.9,20.95,46.9,3.54,17.61,2.87,35.71-1.94,52.35v.04s-.02.04-.02.04l-10.25,52.53-199.14-190.89,113.42-.77h.54M436.8,220.33c-.19,0-.36,0-.55,0l-115.88.79,202.24,193.86,10.61-54.33c18.87-65.25-27.5-140.32-96.41-140.32h0Z"/>
    </g>
    <ellipse class="cls-7" cx="450.08" cy="356.33" rx="40.99" ry="46.51"/>
    <ellipse class="cls-8" cx="297.93" cy="359.66" rx="40.99" ry="46.51"/>
    <path class="cls-8" d="M489.49,363.6c0,25.69-6.53,53.61-29.17,53.61s-52.82-27.92-52.82-53.61,18.35-46.51,40.99-46.51,40.99,20.82,40.99,46.51Z"/>
    <ellipse class="cls-8" cx="414.6" cy="379.01" rx="6.7" ry="16.55"/>
    <ellipse class="cls-8" cx="457.17" cy="413.27" rx="6.7" ry="16.55"/>
    <ellipse class="cls-8" cx="478.36" cy="403.02" rx="8.77" ry="31.53"/>
    <ellipse class="cls-8" cx="277.44" cy="392.77" rx="6.7" ry="16.55"/>
    <ellipse class="cls-8" cx="374.4" cy="452.03" rx="67.01" ry="18.13"/>
    <path class="cls-8" d="M387.72,441.91c0,4.57-35.19,19.31-59.13,19.31s-27.58-14.74-27.58-19.31,19.41-8.28,43.36-8.28,43.36,3.71,43.36,8.28Z"/>
    <ellipse class="cls-8" cx="264.82" cy="377.93" rx="6.7" ry="16.55"/>
    <path class="cls-8" d="M443.86,457.02c0,7.84-7.29,17.08-11.32,17.08s-7.29-6.35-7.29-14.19,3.26-14.19,7.29-14.19,11.32,3.46,11.32,11.3Z"/>
    <path class="cls-8" d="M319.65,475.24c0,3.77-1.87,6.83-4.17,6.83s-4.17-3.06-4.17-6.83,2.36-4.55,4.66-4.55,3.68.78,3.68,4.55Z"/>
    <path class="cls-8" d="M426.17,476.99c0,5.81-2.26,7.36-5.43,7.36s-6.07-1.55-6.07-7.36,2.57-10.51,5.75-10.51,5.75,4.71,5.75,10.51Z"/>
    <ellipse class="cls-8" cx="324.74" cy="460.17" rx="5.75" ry="10.51"/>
    <path class="cls-8" d="M357.84,477.78c0,3.92-1.99,7.09-4.45,7.09s-4.45-3.18-4.45-7.09,1.36-7.09,3.82-7.09,5.08,3.18,5.08,7.09Z"/>
    <ellipse class="cls-8" cx="357.46" cy="483.34" rx="3.71" ry="4.6"/>
    <ellipse class="cls-8" cx="414.27" cy="486.14" rx="3.19" ry="3.07" transform="translate(-213.87 601.84) rotate(-60)"/>
    <ellipse class="cls-2" cx="346.11" cy="432.49" rx="4.45" ry="7.09" transform="translate(-205.74 480.55) rotate(-56.31)"/>
    <ellipse class="cls-2" cx="374.14" cy="467.53" rx="4.45" ry="7.09" transform="translate(-222.41 519.47) rotate(-56.31)"/>
    <ellipse class="cls-2" cx="319.83" cy="433.2" rx="4.45" ry="7.09" transform="translate(-218.02 459) rotate(-56.31)"/>
    <ellipse class="cls-2" cx="313.89" cy="454.28" rx="3.63" ry="4.71" transform="translate(-238.2 463.45) rotate(-56.31)"/>
    <ellipse class="cls-2" cx="433" cy="445.46" rx="3.63" ry="4.71" transform="translate(-177.83 558.62) rotate(-56.31)"/>
    <path class="cls-2" d="M424.42,451.67c2.17,1.44,3.02,3.97,1.91,5.64s-5.17,7.11-7.34,5.66-1.62-9.22-.5-10.89,3.77-1.85,5.94-.41Z"/>
    <path class="cls-2" d="M405.51,427.89c2.17,1.44,3.02,3.97,1.91,5.64s-5.17,7.11-7.34,5.66-1.62-9.22-.5-10.89,3.77-1.85,5.94-.41Z"/>
    <path class="cls-2" d="M394.3,467.84c2.17,1.44,3.02,3.97,1.91,5.64s-5.17,7.11-7.34,5.66-1.62-9.22-.5-10.89,3.77-1.85,5.94-.41Z"/>
    <path class="cls-2" d="M379.61,462.6c2.17,1.44,4.43,6.08,3.32,7.75s-20.96,3.55-23.12,2.1,6.24-6.04,7.36-7.71,10.28-3.59,12.45-2.15Z"/>
    <path class="cls-2" d="M391.67,431.94c3.26,2.17,4.8,5.59,3.43,7.64s-5.11,1.94-8.37-.23-15.01-7.61-13.65-9.66,15.33.08,18.59,2.25Z"/>
    <path class="cls-8" d="M341.2,436c0,2.54-9.37,4.95-11.42,4.95s-3.71-2.06-3.71-4.6,1.66-4.6,3.71-4.6,11.42,1.71,11.42,4.25Z"/>
    <path class="cls-8" d="M420.38,441.95c0,2.54-8.67-.66-10.72-.66s-3.71-2.06-3.71-4.6,1.66-4.6,3.71-4.6,10.72,7.31,10.72,9.85Z"/>
    <circle class="cls-6" cx="306.37" cy="352.59" r="21.31"/>
    <circle class="cls-6" cx="459.09" cy="357.74" r="21.31"/>
    <g>
      <path class="cls-8" d="M361,244.94h0c.02,1.93-1.74,3.51-3.94,3.53l-21.6.18c-2.2.02-4-1.53-4.02-3.47h0c-.02-1.93,1.74-3.51,3.94-3.53l21.6-.18c2.2-.02,4,1.53,4.02,3.47Z"/>
      <path class="cls-8" d="M348.6,232.44h0c2.16.34,3.61,2.15,3.22,4.06l-3.77,18.71c-.38,1.9-2.45,3.17-4.61,2.83h0c-2.16-.34-3.61-2.15-3.22-4.06l3.77-18.71c.38-1.9,2.45-3.17,4.61-2.83Z"/>
    </g>
    <g>
      <path class="cls-8" d="M397.06,279.87h0c.02,1.93-1.74,3.51-3.94,3.53l-21.6.18c-2.2.02-4-1.53-4.02-3.47h0c-.02-1.93,1.74-3.51,3.94-3.53l21.6-.18c2.2-.02,4,1.53,4.02,3.47Z"/>
      <path class="cls-8" d="M384.66,267.37h0c2.16.34,3.61,2.15,3.22,4.06l-3.77,18.71c-.38,1.9-2.45,3.17-4.61,2.83h0c-2.16-.34-3.61-2.15-3.22-4.06l3.77-18.71c.38-1.9,2.45-3.17,4.61-2.83Z"/>
    </g>
    <g>
      <path class="cls-8" d="M427.02,310.61h0c.02,1.93-1.74,3.51-3.94,3.53l-21.6.18c-2.2.02-4-1.53-4.02-3.47h0c-.02-1.93,1.74-3.51,3.94-3.53l21.6-.18c2.2-.02,4,1.53,4.02,3.47Z"/>
      <path class="cls-8" d="M414.62,298.12h0c2.16.34,3.61,2.15,3.22,4.06l-3.77,18.71c-.38,1.9-2.45,3.17-4.61,2.83h0c-2.16-.34-3.61-2.15-3.22-4.06l3.77-18.71c.38-1.9,2.45-3.17,4.61-2.83Z"/>
    </g>
    <g>
      <path class="cls-8" d="M522.41,401.27h0c.02,1.93-1.74,3.51-3.94,3.53l-21.6.18c-2.2.02-4-1.53-4.02-3.47h0c-.02-1.93,1.74-3.51,3.94-3.53l21.6-.18c2.2-.02,4,1.53,4.02,3.47Z"/>
      <path class="cls-8" d="M510,388.77h0c2.16.34,3.61,2.15,3.22,4.06l-3.77,18.71c-.38,1.9-2.45,3.17-4.61,2.83h0c-2.16-.34-3.61-2.15-3.22-4.06l3.77-18.71c.38-1.9,2.45-3.17,4.61-2.83Z"/>
    </g>
    <polygon class="cls-8" points="220.87 158.43 289.77 214.63 300.66 197.66 220.87 158.43"/>
    <polygon class="cls-8" points="229.13 175.09 285.95 223.52 296.84 206.56 229.13 175.09"/>
    <polygon class="cls-8" points="158.23 183.8 240.69 242.8 258.64 197.9 158.23 183.8"/>
    <polygon class="cls-8" points="156.8 191.9 226.29 247.36 237 230.29 156.8 191.9"/>
    <polygon class="cls-8" points="154.02 241.39 192.88 316.92 209.58 305.63 154.02 241.39"/>
    <polygon class="cls-8" points="153.98 241.04 203.76 284.96 214.64 268 153.98 241.04"/>
    <polygon class="cls-8" points="175.86 218.11 208.87 264.72 231.99 228.7 175.86 218.11"/>
    <polygon class="cls-8" points="175.27 242.68 208.28 289.29 231.4 253.27 175.27 242.68"/>
    <polygon class="cls-8" points="289.57 174.82 340.06 219.2 350.95 202.24 289.57 174.82"/>
    <polygon class="cls-8" points="551.46 234.98 534.43 299.88 545.04 301.77 551.46 234.98"/>
    <polygon class="cls-8" points="540.48 249.33 529.7 280.96 539.67 282.74 540.48 249.33"/>
    <polygon class="cls-8" points="524.56 195.61 503.04 248.4 526.55 252.58 524.56 195.61"/>
    <polygon class="cls-8" points="403.54 149.96 428.64 217.31 449.32 205.37 403.54 149.96"/>
    <polygon class="cls-8" points="435.86 175.55 447.86 220.21 468.54 208.27 435.86 175.55"/>
    <path class="cls-8" d="M448.18,222.96l13.46-5.54h-253.05s138.22,16.24,145.31,60.39c2.33,14.5-2.89,9.88,6.97.42,25.04-24.03,55.22-42.06,87.31-55.27Z"/>
    <g>
      <path class="cls-8" d="M373.24,408.58c-3.1,8.04-8.63,13.66-12.37,12.55s-4.26-8.54-1.16-16.58c3.1-8.04,8.63-13.66,12.37-12.55,3.74,1.12,4.26,8.54,1.16,16.58Z"/>
      <path class="cls-8" d="M382.14,405.34c2.33,8.24,1.12,15.6-2.71,16.44s-8.82-5.16-11.15-13.4-1.12-15.6,2.71-16.44,8.82,5.16,11.15,13.4Z"/>
    </g>
    <path class="cls-7" d="M487.65,375.03c0,25.69-7.32,46.25-29.96,46.25s-47.82-26.87-47.82-52.55,18.35-46.51,40.99-46.51,36.79,27.13,36.79,52.82Z"/>
    <polygon class="cls-8" points="552.1 235.43 535.06 300.34 545.68 302.23 552.1 235.43"/>
  </g>
</svg>