<?xml version="1.0" encoding="UTF-8"?>
<svg id="Layer_1" xmlns="http://www.w3.org/2000/svg" version="1.1" viewBox="0 0 1024 1024">
  <!-- Generator: Adobe Illustrator 30.3.0, SVG Export Plug-In . SVG Version: 2.1.3 Build 182)  -->
  <defs>
    <style>
      .st0, .st1, .st2 {
        fill: #a3d1cf;
      }

      .st3 {
        fill: #538a55;
      }

      .st4 {
        fill: #fff;
      }

      .st5 {
        fill: #251b29;
      }

      .st6 {
        fill: none;
        stroke: #251b29;
      }

      .st6, .st1, .st2 {
        stroke-miterlimit: 10;
      }

      .st1 {
        stroke-width: 14px;
      }

      .st1, .st2 {
        stroke: #a3d1cf;
      }

      .st7 {
        fill: #302a21;
      }

      .st2 {
        stroke-width: 10px;
      }

      .st8 {
        fill: #634f6b;
      }

      .st9 {
        fill: #3a2a40;
      }
    </style>
  </defs>
  <g id="Layer_2">
    <g>
      <path class="st0" d="M331.17,908.48c-24.24-1.17-88.78-13.05-110.74-36.4-4.72-5.01-6.9-9.99-6.68-15.23l.05-1.27-55.11-319.11-.24-.77c-16.17-51.73-3.19-111.7,35.66-164.53,49.12-66.82,127.82-108.32,205.39-108.32h295.92c95.92,0,188.41,42.15,241.41,109.98,28.69,36.74,58.7,97.33,38.75,177.37l-.17.67-38.61,297.03c-30.73,56.98-99.94,58.7-107.82,58.7h-5.89c2.13-3.09,3.38-4.98,3.5-5.15l12.19-18.56H314.41l12.07,18.51c.14.22,1.82,2.8,4.72,7.04l-.02.05Z"/>
      <path class="st0" d="M695.43,274.84c92.3,0,181.2,40.38,231.98,105.38,27.06,34.63,55.37,91.75,36.55,167.1l-.34,1.34-.17,1.37-38.22,294.08c-19.93,34.94-56.76,45.74-78.87,49.07l14.61-22.25H292.28l14.68,22.54c-27.66-4.84-64.16-15.11-77.81-29.6-3.54-3.76-3.47-5.77-3.42-6.54l.1-2.54-.43-2.51-54.75-317.07-.26-1.56-.48-1.51c-15.02-48.07-2.68-104.16,33.87-153.88,46.89-63.8,121.9-103.44,195.74-103.44h295.92M695.43,250.89h-295.92c-155.43,0-293.84,156.06-252.48,288.4l54.75,317.07c-1.89,46.46,105.4,63.63,131.48,64.16l21.1-.07c-10.75-14.61-17.89-25.55-17.89-25.55h480.1s-6.66,10.15-16.74,23.83l29.17-.12c29.55-.02,91.03-11.86,119.41-67.01l38.8-298.49c41.39-165.92-114.62-302.22-291.78-302.22h0Z"/>
    </g>
    <g>
      <path class="st0" d="M562.24,945.05c-50.49,0-97.36-3.02-128.59-8.29-9.03-1.53-27.78-15.59-55.04-49.53l396.82-1.53c-25.84,32.04-43.59,45.53-52.16,47.16-40.57,7.76-99.27,12.19-161.04,12.19Z"/>
      <path class="st0" d="M749.26,897.77c-15.09,16.24-24.55,22.46-28.24,23.3-39.85,7.62-97.74,11.97-158.79,11.97-49.84,0-95.99-2.95-126.57-8.12-.12-.02-9.48-2.18-31.23-25.84l344.83-1.34M799.82,873.63l-445.44,1.72c20.6,27.97,54.56,69.38,77.29,73.21,32.64,5.51,80.45,8.45,130.57,8.45,57.91,0,118.91-3.93,163.27-12.41,21.84-4.17,54.63-44.31,74.32-70.99h0Z"/>
    </g>
    <g>
      <path class="st0" d="M359.31,906.87h409.16l-408.03,1.58c-.38-.53-.77-1.05-1.15-1.58h.02Z"/>
      <path class="st0" d="M816.56,894.9h-480.1s7.14,10.95,17.89,25.55l445.44-1.72c10.08-13.68,16.74-23.83,16.74-23.83h.02Z"/>
    </g>
    <g>
      <path class="st2" d="M956.43,639.26l-753.82-27.49-62.84-127.89c-71.23-144.97,41.91-312.5,203-300.55l389.02,28.86c181.73,13.48,302.22,194.4,244.58,367.29l-19.93,59.75v.02Z"/>
      <polygon class="st2" points="209.87 111.43 374.88 246 400.94 205.38 209.87 111.43"/>
      <polygon class="st2" points="229.63 151.33 365.71 267.32 391.79 226.7 229.63 151.33"/>
      <polygon class="st2" points="59.82 165 257.31 306.31 300.3 198.77 59.82 165"/>
      <polygon class="st2" points="56.4 191.59 222.82 324.41 248.47 283.53 56.4 191.59"/>
      <polygon class="st2" points="49.74 310.11 142.81 491.01 182.8 463.97 49.74 310.11"/>
      <polygon class="st2" points="49.64 309.28 168.87 414.46 194.92 373.84 49.64 309.28"/>
      <polygon class="st2" points="102.05 254.36 181.1 365.99 236.48 279.72 102.05 254.36"/>
      <polygon class="st2" points="100.63 313.2 179.69 424.83 235.06 338.57 100.63 313.2"/>
      <polygon class="st2" points="374.38 150.68 495.33 256.97 521.38 216.35 374.38 150.68"/>
      <polygon class="st2" points="1001.6 294.76 960.81 450.2 986.22 454.72 1001.6 294.76"/>
      <polygon class="st2" points="975.3 329.13 949.48 404.88 973.36 409.15 975.3 329.13"/>
      <polygon class="st2" points="937.2 200.47 885.63 326.9 941.94 336.91 937.2 200.47"/>
      <polygon class="st2" points="647.33 91.14 707.45 252.44 756.98 223.85 647.33 91.14"/>
      <polygon class="st2" points="724.74 152.43 753.48 259.39 803.01 230.79 724.74 152.43"/>
    </g>
    <path class="st1" d="M938.47,621.44l-753.82-27.49-62.84-127.89c-71.23-144.97,41.91-312.5,203-300.55l389.02,28.86c181.73,13.48,302.22,194.4,244.58,367.29l-19.93,59.75v.02Z"/>
  </g>
  <g id="Layer_11" data-name="Layer_1">
    <path class="st5" d="M955.9,630.97l-753.82-27.49-62.84-127.89c-71.23-144.97,41.91-312.5,203-300.55l389.02,28.86c181.73,13.48,302.22,194.4,244.58,367.29l-19.93,59.75v.02Z"/>
    <path class="st3" d="M953.58,541.9l-35.4,285.29c-25.89,52.71-81.98,64.02-108.95,64.04l-26.61.12c9.2-13.08,15.28-22.78,15.28-22.78h-438.02s6.51,10.47,16.33,24.43l-19.26.07c-23.81-.5-121.69-16.93-119.96-61.34l-49.96-303.06c-37.74-126.5,88.54-275.66,230.35-275.66h269.99c161.61,0,303.97,130.29,266.2,288.88h0Z"/>
    <path class="st3" d="M782.63,848.24c-17.96,25.51-47.88,63.87-67.8,67.85-75.51,15.11-203.91,15.11-268.09,3.78-20.74-3.66-51.71-43.25-70.51-69.98l406.4-1.65h0Z"/>
    <g>
      <path class="st3" d="M376.85,891.81c-7.14-10.18-12.53-18.49-14.78-22.03h433.66c-2.16,3.35-7.14,10.99-13.72,20.38l-405.16,1.65h0Z"/>
      <path class="st3" d="M793.52,870.97c-2.47,3.81-6.75,10.27-12.14,17.99l-403.91,1.65c-5.92-8.45-10.59-15.57-13.22-19.64h429.28M797.91,868.58h-438.02s6.51,10.47,16.33,24.43l406.4-1.65c9.2-13.08,15.28-22.78,15.28-22.78h0Z"/>
    </g>
    <ellipse class="st6" cx="393.85" cy="572.15" rx="98.17" ry="111.39"/>
    <ellipse class="st6" cx="395.12" cy="592.05" rx="98.17" ry="111.39"/>
    <g>
      <path class="st8" d="M450.54,254.43l275.9-1.87c71.2,0,138.26,34.92,184.03,95.78,51.9,69.02,69,158.28,45.72,238.76l-25,128.06L450.54,254.43Z"/>
      <path class="st5" d="M726.44,253.76c36.67,0,71.66,8.86,103.99,26.34,30.03,16.24,57.38,40.07,79.11,68.98,24.62,32.76,41.98,71.61,50.17,112.32,8.48,42.18,6.87,85.52-4.65,125.38v.1l-.05.1-24.55,125.81L453.53,255.6l271.64-1.84h1.29M726.44,251.37h-1.32l-277.53,1.89,484.36,464.29,25.41-130.12c45.19-156.27-65.86-336.06-230.9-336.06h-.02Z"/>
    </g>
    <ellipse class="st6" cx="758.25" cy="577.11" rx="98.17" ry="111.39"/>
    <ellipse class="st5" cx="393.85" cy="585.06" rx="98.17" ry="111.39"/>
    <path class="st5" d="M852.66,594.52c0,61.53-15.64,128.39-69.86,128.39s-126.5-66.87-126.5-128.39,43.95-111.39,98.17-111.39,98.17,49.86,98.17,111.39h.02Z"/>
    <ellipse class="st5" cx="673.3" cy="631.4" rx="16.05" ry="39.64"/>
    <ellipse class="st5" cx="775.25" cy="713.45" rx="16.05" ry="39.64"/>
    <ellipse class="st5" cx="825.98" cy="688.9" rx="21" ry="75.51"/>
    <ellipse class="st5" cx="344.78" cy="664.36" rx="16.05" ry="39.64"/>
    <ellipse class="st5" cx="576.99" cy="806.28" rx="160.49" ry="43.42"/>
    <path class="st5" d="M608.9,782.04c0,10.95-84.28,46.25-141.62,46.25s-66.05-35.3-66.05-46.25,46.49-19.83,103.85-19.83,103.85,8.89,103.85,19.83h-.02Z"/>
    <ellipse class="st5" cx="314.58" cy="628.81" rx="16.05" ry="39.64"/>
    <path class="st5" d="M743.35,818.23c0,18.78-17.46,40.91-27.11,40.91s-17.46-15.21-17.46-33.98,7.81-33.98,17.46-33.98,27.11,8.29,27.11,27.06h0Z"/>
    <path class="st5" d="M445.89,861.87c0,9.03-4.48,16.36-9.99,16.36s-9.99-7.33-9.99-16.36,5.65-10.9,11.16-10.9,8.81,1.87,8.81,10.9Z"/>
    <path class="st5" d="M700.98,866.06c0,13.91-5.41,17.63-13,17.63s-14.54-3.71-14.54-17.63,6.16-25.17,13.77-25.17,13.77,11.28,13.77,25.17Z"/>
    <ellipse class="st5" cx="458.06" cy="825.8" rx="13.77" ry="25.17"/>
    <path class="st5" d="M537.36,867.95c0,9.39-4.77,16.98-10.66,16.98s-10.66-7.62-10.66-16.98,3.26-16.98,9.15-16.98,12.17,7.62,12.17,16.98Z"/>
    <ellipse class="st5" cx="536.42" cy="881.27" rx="8.89" ry="11.02"/>
    <ellipse class="st5" cx="672.51" cy="887.97" rx="7.64" ry="7.35" transform="translate(-432.76 1026.4) rotate(-60)"/>
    <ellipse class="st3" cx="509.23" cy="759.44" rx="10.66" ry="16.98" transform="translate(-405.14 761.88) rotate(-56.31)"/>
    <ellipse class="st3" cx="576.35" cy="843.36" rx="10.66" ry="16.98" transform="translate(-445.07 855.1) rotate(-56.31)"/>
    <ellipse class="st3" cx="446.3" cy="761.13" rx="10.66" ry="16.98" transform="translate(-434.56 710.27) rotate(-56.31)"/>
    <ellipse class="st3" cx="432.06" cy="811.63" rx="8.69" ry="11.28" transform="translate(-482.92 720.91) rotate(-56.31)"/>
    <ellipse class="st3" cx="717.31" cy="790.49" rx="8.69" ry="11.28" transform="translate(-338.31 948.84) rotate(-56.31)"/>
    <path class="st3" d="M696.79,805.44c5.2,3.45,7.23,9.51,4.57,13.51s-12.38,17.03-17.58,13.56-3.88-22.08-1.2-26.08c2.68-4,9.03-4.43,14.23-.98h-.02Z"/>
    <path class="st3" d="M651.5,748.49c5.2,3.45,7.23,9.51,4.57,13.51s-12.38,17.03-17.58,13.56-3.88-22.08-1.2-26.08,9.03-4.43,14.23-.98h-.02Z"/>
    <path class="st3" d="M624.65,844.15c5.2,3.45,7.23,9.51,4.57,13.51s-12.38,17.03-17.58,13.56-3.88-22.08-1.2-26.08c2.68-4,9.03-4.43,14.23-.98h-.02Z"/>
    <path class="st3" d="M589.47,831.6c5.2,3.45,10.61,14.56,7.95,18.56s-50.2,8.5-55.37,5.03c-5.17-3.47,14.94-14.47,17.63-18.47s24.62-8.6,29.82-5.15l-.02.02Z"/>
    <path class="st3" d="M618.36,758.19c7.81,5.2,11.5,13.39,8.21,18.3-3.28,4.91-12.24,4.65-20.05-.55s-35.95-18.23-32.69-23.14c3.26-4.91,36.72.19,44.52,5.39Z"/>
    <path class="st5" d="M497.5,767.89c0,6.08-22.44,11.86-27.35,11.86s-8.89-4.93-8.89-11.02,3.98-11.02,8.89-11.02,27.35,4.1,27.35,10.18Z"/>
    <path class="st5" d="M687.14,782.16c0,6.08-20.76-1.58-25.67-1.58s-8.89-4.93-8.89-11.02,3.98-11.02,8.89-11.02,25.67,17.51,25.67,23.59v.02Z"/>
    <circle class="st4" cx="414.09" cy="568.15" r="51.04"/>
    <circle class="st4" cx="779.85" cy="580.46" r="51.04"/>
    <g>
      <path class="st7" d="M544.9,310.31h0c.05,4.62-4.17,8.41-9.44,8.45l-51.73.43c-5.27.05-9.58-3.66-9.63-8.31h0c-.05-4.62,4.17-8.41,9.44-8.45l51.73-.43c5.27-.05,9.58,3.66,9.63,8.31Z"/>
      <path class="st7" d="M515.2,280.37h0c5.17.81,8.65,5.15,7.71,9.72l-9.03,44.81c-.91,4.55-5.87,7.59-11.04,6.78h0c-5.17-.81-8.65-5.15-7.71-9.72l9.03-44.81c.91-4.55,5.87-7.59,11.04-6.78Z"/>
    </g>
    <g>
      <path class="st9" d="M631.29,393.96h0c.05,4.62-4.17,8.41-9.44,8.45l-51.73.43c-5.27.05-9.58-3.66-9.63-8.31h0c-.05-4.62,4.17-8.41,9.44-8.45l51.73-.43c5.27-.05,9.58,3.66,9.63,8.31Z"/>
      <path class="st9" d="M601.57,364.03h0c5.17.81,8.65,5.15,7.71,9.72l-9.03,44.81c-.91,4.55-5.87,7.59-11.04,6.78h0c-5.17-.81-8.65-5.15-7.71-9.72l9.03-44.81c.91-4.55,5.87-7.59,11.04-6.78Z"/>
    </g>
    <g>
      <path class="st9" d="M703.02,467.61h0c.05,4.62-4.17,8.41-9.44,8.45l-51.73.43c-5.27.05-9.58-3.66-9.63-8.31h0c-.05-4.62,4.17-8.41,9.44-8.45l51.73-.43c5.27-.05,9.58,3.66,9.63,8.31Z"/>
      <path class="st9" d="M673.32,437.67h0c5.17.81,8.65,5.15,7.71,9.72l-9.03,44.81c-.91,4.55-5.87,7.59-11.04,6.78h0c-5.17-.81-8.65-5.15-7.71-9.72l9.03-44.81c.91-4.55,5.87-7.59,11.04-6.78Z"/>
    </g>
    <g>
      <path class="st9" d="M931.47,684.71h0c.05,4.62-4.17,8.41-9.44,8.45l-51.73.43c-5.27.05-9.58-3.66-9.63-8.31h0c-.05-4.62,4.17-8.41,9.44-8.45l51.73-.43c5.27-.05,9.58,3.66,9.63,8.31Z"/>
      <path class="st9" d="M901.78,654.8h0c5.17.81,8.65,5.15,7.71,9.72l-9.03,44.81c-.91,4.55-5.87,7.59-11.04,6.78h0c-5.17-.81-8.65-5.15-7.71-9.72l9.03-44.81c.91-4.55,5.87-7.59,11.04-6.78Z"/>
    </g>
    <polygon class="st5" points="209.32 103.14 374.33 237.71 400.39 197.07 209.32 103.14"/>
    <polygon class="st5" points="229.1 143.02 365.16 259.03 391.24 218.39 229.1 143.02"/>
    <polygon class="st5" points="59.3 163.9 256.76 305.2 299.75 197.65 59.3 163.9"/>
    <polygon class="st5" points="55.87 183.28 222.27 316.13 247.92 275.22 55.87 183.28"/>
    <polygon class="st5" points="49.19 301.83 142.26 482.7 182.28 455.66 49.19 301.83"/>
    <polygon class="st5" points="49.09 300.97 168.31 406.15 194.4 365.53 49.09 300.97"/>
    <polygon class="st5" points="101.52 246.05 180.58 357.7 235.93 271.41 101.52 246.05"/>
    <polygon class="st5" points="100.08 304.89 179.14 416.52 234.51 330.26 100.08 304.89"/>
    <polygon class="st5" points="373.83 142.37 494.77 248.66 520.83 208.04 373.83 142.37"/>
    <polygon class="st7" points="1001.07 286.45 960.26 441.89 985.67 446.41 1001.07 286.45"/>
    <polygon class="st5" points="974.75 320.82 948.93 396.57 972.84 400.84 974.75 320.82"/>
    <polygon class="st5" points="936.65 192.16 885.08 318.59 941.39 328.6 936.65 192.16"/>
    <polygon class="st5" points="646.78 82.83 706.9 244.13 756.43 215.54 646.78 82.83"/>
    <polygon class="st5" points="724.19 144.12 752.93 251.08 802.46 222.48 724.19 144.12"/>
    <path class="st5" d="M753.7,257.66l32.24-13.27H179.88s331.03,38.89,348.01,144.63c5.58,34.73-6.92,23.66,16.69,1.01,59.97-57.55,132.25-100.73,209.11-132.37h0Z"/>
    <g>
      <path class="st5" d="M574.24,702.22c-7.42,19.26-20.67,32.72-29.63,30.06-8.96-2.66-10.2-20.45-2.78-39.71,7.42-19.26,20.67-32.72,29.63-30.06,8.96,2.68,10.2,20.45,2.78,39.71Z"/>
      <path class="st5" d="M595.55,694.48c5.58,19.73,2.68,37.36-6.49,39.37s-21.12-12.36-26.7-32.09c-5.58-19.73-2.68-37.36,6.49-39.37s21.12,12.36,26.7,32.09Z"/>
    </g>
    <path class="st6" d="M848.25,621.89c0,61.53-17.53,110.77-71.75,110.77s-114.53-64.35-114.53-125.86,43.95-111.39,98.17-111.39,88.11,64.98,88.11,126.5v-.02Z"/>
    <polygon class="st5" points="1002.58 287.53 961.77 442.99 987.21 447.51 1002.58 287.53"/>
  </g>
</svg>